<svg width="100" height="103" viewBox="0 0 100 103" fill="none" xmlns="http://www.w3.org/2000/svg">
<g id="quicksand">
<g id="Group">
<g id="Group_2">
<g id="Group_3">
<path id="Vector" d="M65.0677 55.1564C65.0677 53.0871 64.4913 52.5141 62.8903 52.5141H62.634V71.4234H63.1143C64.6834 71.4234 65.0677 70.723 65.0677 69.6089V55.1564ZM60.2324 73.5881V50.3494H63.1143C65.8682 50.3494 67.4693 51.4636 67.4693 54.3605V69.2905C67.4693 72.4102 65.2918 73.5881 62.6981 73.5881H60.2324Z" fill="white"/>
</g>
</g>
<g id="Group_4">
<g id="Group_5">
<path id="Vector_2" d="M58.5494 50.3494V73.5881H56.2759L53.2019 54.265H52.8176L53.2659 61.6185L53.4581 73.5881H51.1846V50.3494H53.4581L56.532 69.6725H56.9164L56.4681 62.319L56.2438 50.3494H58.5494Z" fill="white"/>
</g>
</g>
<g id="Group_6">
<g id="Group_7">
<path id="Vector_3" d="M46.3291 60.5749H45.9769L45.2794 71.5575H47.5139L46.9375 66.9416L46.3291 60.5749ZM47.2257 55.4814L51.1323 78.7201H48.4426L47.6099 72.1941H45.2083L44.7921 78.7201H41.9102L45.4326 58.6967L44.0556 55.4814H47.2257Z" fill="white"/>
</g>
</g>
<g id="Group_8">
<g id="Group_9">
<path id="Vector_4" d="M41.6849 83.6972C41.6849 86.4349 39.9878 87.6127 37.9704 87.6127C36.0812 87.6127 35.1845 86.6258 35.1845 84.6522C35.1845 82.6148 35.2486 80.2909 35.5368 78.5401H37.8424C36.4014 81.2779 35.793 83.2515 35.793 84.2702C35.793 85.1933 36.4014 85.448 37.9704 85.448C39.0272 85.448 39.2833 84.8114 39.2833 83.9837C39.2833 79.7816 35.0244 72.3325 35.0244 67.7485C35.0244 64.9153 36.7215 63.7374 38.7389 63.7374C40.4041 63.7374 41.2045 64.7244 41.2045 66.6981C41.2045 67.9078 41.2045 70.327 40.8524 72.4917H38.7389C40.1798 69.0218 40.5961 67.8758 40.5961 67.0163C40.5961 66.1568 40.0838 65.9021 38.7389 65.9021C37.6821 65.9021 37.426 66.5389 37.426 67.3665C37.426 70.9637 41.6849 80.0044 41.6849 83.6972Z" fill="white"/>
</g>
</g>
<g id="Group_10">
<g id="Group_11">
<g id="Group_12">
<path id="Vector_5" d="M63.8438 39.639V21.6991H66.2453V24.2776L65.4769 31.7904L65.797 31.854L68.743 21.6991H71.6249V23.8319L70.9205 24.023C69.1593 24.5005 68.551 26.4742 67.3341 29.6257C66.9499 30.6444 66.6617 31.472 66.5016 32.2042L66.7257 32.427L69.5116 32.1724L71.6249 44.9377H69.0312L67.8464 35.9288C67.5261 33.4457 67.206 32.9364 66.3415 33.0956C66.2774 33.5094 66.2453 33.9233 66.2453 34.3689L66.3172 39.639H63.8438Z" fill="white"/>
</g>
</g>
</g>
<g id="Group_13">
<g id="Group_14">
<path id="Vector_6" d="M59.1383 26.1038C61.3798 21.3287 61.6039 20.0873 61.6039 19.1959C61.6039 18.4956 61.0916 18.2408 59.7467 18.2408C58.9142 18.2408 58.722 18.9413 58.722 20.0555V35.1445C58.722 37.4366 59.3945 37.7867 60.0349 37.7867C60.8674 37.7867 61.1875 36.5771 61.2516 34.5397L61.3478 30.7833H61.796L61.8921 34.6351C61.9562 37.6593 61.0275 39.9514 59.1062 39.9514C57.281 39.9514 56.3203 38.9645 56.3203 36.2268V20.3737C56.3203 17.254 57.8895 16.0761 59.7467 16.0761C61.4119 16.0761 62.2124 17.0631 62.2124 19.0368C62.2124 20.6603 62.1483 22.8885 61.5719 26.1038H59.1383Z" fill="white"/>
</g>
</g>
<g id="Group_15">
<g id="Group_16">
<path id="Vector_7" d="M51.2021 39.6391V16.4004H53.6038V39.6391H51.2021Z" fill="white"/>
</g>
</g>
<g id="Group_17">
<g id="Group_18">
<path id="Vector_8" d="M45.7208 45.5012C46.5533 45.5012 46.7455 44.8009 46.7455 43.6866V24.1089H49.147V43.3684C49.147 46.488 47.4179 47.6659 45.3364 47.6659C43.1269 47.6659 41.9102 46.679 41.9102 43.9414V24.1089H44.3117V42.859C44.3117 45.151 44.9522 45.5012 45.7208 45.5012Z" fill="white"/>
</g>
</g>
<g id="Group_19">
<g id="Group_20">
<path id="Vector_9" d="M37.5882 34.2711C37.5882 31.9791 36.9798 31.6288 36.3393 31.6288C35.3787 31.6288 35.1546 32.3292 35.1546 33.4433V48.2142C35.1546 50.5062 35.795 50.8564 36.5635 50.8564C37.3961 50.8564 37.5882 49.8696 37.5882 48.3096V34.2711ZM41.1746 49.0101V53.0211H36.1792C33.9697 53.0211 32.7529 52.0342 32.7529 49.2966V33.7617C32.7529 30.642 34.4821 29.4641 36.5635 29.4641C38.805 29.4641 39.9898 30.451 39.9898 33.1887V47.8322C39.9898 50.2834 38.7731 51.9387 37.0118 52.1616V52.4799C38.4208 52.4481 39.7657 51.8751 41.1746 49.0101Z" fill="white"/>
</g>
</g>
<g id="Group_21">
<g id="Group_22">
<g id="Group_23">
<path id="Vector_10" d="M39.663 61.2138H40.1007V59.4496H40.8976V59.0681H38.8662V59.4496H39.663V61.2138Z" fill="white"/>
</g>
<g id="Group_24">
<path id="Vector_11" d="M36.1859 60.2267V59.4469H36.8569C37.0235 59.4469 37.1483 59.4796 37.2312 59.5451C37.314 59.6105 37.3555 59.7032 37.3555 59.823C37.3555 59.8843 37.3451 59.9399 37.3244 59.9898C37.3036 60.0398 37.2724 60.0821 37.2305 60.1169C37.1886 60.1517 37.1365 60.1786 37.0744 60.1979C37.0123 60.2171 36.9397 60.2267 36.8569 60.2267H36.1859ZM35.748 61.2138H36.1859V60.6029L36.8487 60.6042H36.8611L37.2671 61.2138H37.8028L37.3334 60.5273C37.4153 60.4963 37.4866 60.4571 37.5474 60.4099C37.6081 60.3628 37.6586 60.309 37.6986 60.2486C37.7386 60.1882 37.7682 60.1221 37.7876 60.0502C37.807 59.9783 37.8167 59.9027 37.8167 59.823C37.8167 59.7049 37.797 59.5993 37.758 59.506C37.7188 59.4127 37.6593 59.3334 37.5791 59.2685C37.499 59.2035 37.3982 59.1537 37.2767 59.1195C37.1552 59.0852 37.0115 59.0681 36.8459 59.0681H35.748V61.2138Z" fill="white"/>
</g>
<g id="Group_25">
<path id="Vector_12" d="M33.0073 60.4944L33.4616 59.5196L33.9284 60.4944H33.0073ZM32.2119 61.2138H32.6732L32.8403 60.8527H34.1009L34.2736 61.2138H34.7335L33.6895 59.0681H33.2254L32.2119 61.2138Z" fill="white"/>
</g>
<g id="Group_26">
<path id="Vector_13" d="M39.0117 57.919H40.8786V57.5387H39.4494V56.9415H40.6894V56.5832H39.4494V56.1549H40.8497V55.7733H39.0117V57.919Z" fill="white"/>
</g>
<g id="Group_27">
<path id="Vector_14" d="M35.501 57.919H35.9387V56.7055H37.2809V57.919H37.7201V55.7733H37.2809V56.3334H35.9387V55.7733H35.501V57.919Z" fill="white"/>
</g>
<g id="Group_28">
<path id="Vector_15" d="M33.1219 57.919H33.5597V56.1549H34.3564V55.7733H32.3252V56.1549H33.1219V57.919Z" fill="white"/>
</g>
</g>
</g>
<g id="Group_29">
<g id="Group_30">
<g id="Group_31">
<path id="Vector_16" d="M46.6992 52.5638H47.137V51.7195H48.4047V51.3613H47.137V50.7998H48.6297V50.4181H46.6992V52.5638Z" fill="white"/>
</g>
<g id="Group_32">
<path id="Vector_17" d="M43.5632 51.1869C43.6032 51.0991 43.6589 51.0247 43.7303 50.9638C43.8017 50.9028 43.8858 50.8565 43.9829 50.8245C44.08 50.7925 44.1857 50.7765 44.2999 50.7765C44.4141 50.7765 44.5197 50.7925 44.6168 50.8245C44.7139 50.8565 44.798 50.9028 44.8688 50.9638C44.9396 51.0247 44.9954 51.0991 45.0359 51.1869C45.0764 51.2748 45.0966 51.3741 45.0966 51.4848C45.0966 51.5955 45.0764 51.6953 45.0359 51.784C44.9954 51.8728 44.9396 51.9486 44.8688 52.0112C44.798 52.0739 44.7139 52.1222 44.6168 52.1561C44.5197 52.19 44.4141 52.2068 44.2999 52.2068C44.1857 52.2068 44.08 52.19 43.9829 52.1561C43.8858 52.1222 43.8017 52.0739 43.7303 52.0112C43.6589 51.9486 43.6032 51.8728 43.5632 51.784C43.5232 51.6953 43.5031 51.5955 43.5031 51.4848C43.5031 51.3741 43.5232 51.2748 43.5632 51.1869ZM43.1551 51.9331C43.2149 52.0689 43.2991 52.1858 43.4072 52.2837C43.5154 52.3817 43.645 52.4579 43.7965 52.5124C43.9479 52.5668 44.1159 52.594 44.2999 52.594C44.4831 52.594 44.6506 52.5668 44.8025 52.5124C44.9544 52.4579 45.0845 52.3817 45.1927 52.2837C45.3008 52.1858 45.3848 52.0689 45.4446 51.9331C45.5044 51.7972 45.5345 51.6478 45.5345 51.4848C45.5345 51.3228 45.5044 51.1745 45.4446 51.0399C45.3848 50.9054 45.3008 50.7899 45.1927 50.6933C45.0845 50.5968 44.9544 50.5221 44.8025 50.4689C44.6506 50.4159 44.4831 50.3893 44.2999 50.3893C44.1159 50.3893 43.9479 50.4159 43.7965 50.4689C43.645 50.5221 43.5154 50.5968 43.4072 50.6933C43.2991 50.7899 43.2149 50.9054 43.1551 51.0399C43.0953 51.1745 43.0654 51.3228 43.0654 51.4848C43.0654 51.6478 43.0953 51.7972 43.1551 51.9331Z" fill="white"/>
</g>
</g>
</g>
<g id="Group_33">
<g id="Group_34">
<g id="Group_35">
<path id="Vector_18" d="M70.8652 47.8257H71.3029V47.3163L71.6248 47.0075L72.4201 47.8257H73.0028L71.9396 46.7041L73.0028 45.6801H72.4422L71.3029 46.7906V45.6801H70.8652V47.8257Z" fill="white"/>
</g>
<g id="Group_36">
<path id="Vector_19" d="M67.5458 47.1785C67.6023 47.3144 67.6869 47.4323 67.7992 47.5326C67.9115 47.6329 68.0515 47.7116 68.219 47.7688C68.3865 47.8259 68.5813 47.8546 68.8032 47.8546C68.9772 47.8546 69.1415 47.8333 69.2961 47.7907C69.4507 47.7481 69.587 47.6895 69.7048 47.6144L69.5032 47.2849C69.4562 47.3114 69.4056 47.3359 69.3513 47.3583C69.297 47.3808 69.2406 47.3999 69.1821 47.416C69.1237 47.4321 69.0632 47.4446 69.0006 47.4537C68.938 47.4628 68.875 47.4674 68.8114 47.4674C68.6715 47.4674 68.5461 47.4493 68.4351 47.4132C68.3242 47.377 68.2303 47.3267 68.1534 47.2622C68.0765 47.1976 68.0179 47.121 67.9774 47.0323C67.9369 46.9435 67.9167 46.8461 67.9167 46.7399C67.9167 46.6373 67.9361 46.5434 67.9752 46.4578C68.0143 46.3723 68.0715 46.2985 68.1465 46.2368C68.2215 46.1751 68.3138 46.1269 68.4234 46.0926C68.5329 46.0583 68.6577 46.0412 68.7977 46.0412C68.8557 46.0412 68.9143 46.0448 68.9737 46.0522C69.0331 46.0595 69.0906 46.0697 69.1463 46.0829C69.2021 46.0962 69.2545 46.1124 69.3038 46.1317C69.353 46.151 69.3965 46.1728 69.4342 46.1975L69.6358 45.8682C69.5097 45.7959 69.3731 45.7421 69.2263 45.7069C69.0795 45.6717 68.9182 45.654 68.7423 45.654C68.5417 45.654 68.3619 45.6818 68.2031 45.7377C68.0443 45.7935 67.9099 45.8702 67.7999 45.9677C67.6899 46.0651 67.606 46.18 67.5479 46.3123C67.4899 46.4446 67.4609 46.587 67.4609 46.7399C67.4609 46.8964 67.4892 47.0426 67.5458 47.1785Z" fill="white"/>
</g>
<g id="Group_37">
<path id="Vector_20" d="M64.2451 46.9142C64.2451 47.0551 64.2691 47.1833 64.317 47.2985C64.3648 47.4138 64.4343 47.5127 64.5255 47.5951C64.6167 47.6774 64.7282 47.741 64.8603 47.7859C64.9924 47.8307 65.1432 47.8532 65.3126 47.8532C65.4821 47.8532 65.6328 47.8307 65.7649 47.7859C65.897 47.741 66.0085 47.6774 66.0996 47.5951C66.1908 47.5127 66.2603 47.4138 66.3083 47.2985C66.3561 47.1833 66.38 47.0551 66.38 46.9142V45.6801H65.9422V46.8619C65.9422 46.959 65.9289 47.0452 65.9022 47.1207C65.8756 47.1962 65.8357 47.2601 65.7828 47.3123C65.7298 47.3645 65.664 47.404 65.5853 47.4311C65.5067 47.4581 65.4158 47.4715 65.3126 47.4715C65.2085 47.4715 65.1174 47.4581 65.0391 47.4311C64.9609 47.404 64.8953 47.3645 64.8424 47.3123C64.7895 47.2601 64.7496 47.1962 64.7229 47.1207C64.6963 47.0452 64.6829 46.959 64.6829 46.8619V45.6801H64.2451V46.9142Z" fill="white"/>
</g>
<g id="Group_38">
<path id="Vector_21" d="M61.9472 47.8257H62.3849V46.0616H63.1817V45.6801H61.1504V46.0616H61.9472V47.8257Z" fill="white"/>
</g>
<g id="Group_39">
<path id="Vector_22" d="M57.6572 47.5402C57.7391 47.5869 57.8283 47.6298 57.9244 47.6686C58.0206 47.7076 58.1218 47.7409 58.2282 47.7688C58.3346 47.7967 58.4457 47.8182 58.5617 47.8333C58.6776 47.8484 58.7964 47.8559 58.9179 47.8559C59.102 47.8559 59.2692 47.8388 59.4192 47.8045C59.5693 47.7702 59.6973 47.7199 59.8037 47.6535C59.9101 47.5871 59.992 47.5057 60.0495 47.4092C60.107 47.3126 60.1358 47.2024 60.1358 47.0789C60.1358 46.9865 60.1188 46.903 60.0848 46.8284C60.0507 46.7538 60.0005 46.6902 59.9342 46.6376C59.868 46.585 59.7858 46.5444 59.6878 46.516C59.5897 46.4877 59.4771 46.4736 59.3502 46.4736C59.283 46.4736 59.2137 46.4769 59.1424 46.4838C59.071 46.4906 59.001 46.4982 58.9324 46.5065C58.8639 46.5148 58.7984 46.5223 58.7363 46.5292C58.6742 46.536 58.6192 46.5395 58.5714 46.5395C58.4526 46.5395 58.3642 46.519 58.3062 46.4783C58.2482 46.4376 58.2192 46.3852 58.2192 46.3211C58.2192 46.2882 58.2282 46.2551 58.2461 46.2216C58.264 46.1883 58.296 46.158 58.342 46.131C58.3881 46.104 58.45 46.0819 58.5279 46.0645C58.6057 46.0471 58.7047 46.0384 58.8253 46.0384C58.9101 46.0384 58.9931 46.0432 59.0746 46.0528C59.1561 46.0625 59.2351 46.0754 59.3115 46.0919C59.3879 46.1084 59.461 46.1279 59.531 46.1503C59.6009 46.1728 59.6664 46.1971 59.7271 46.2236L59.919 45.8722C59.8453 45.8393 59.7659 45.8094 59.6802 45.7824C59.5946 45.7553 59.5054 45.7323 59.4129 45.713C59.3204 45.6938 59.2255 45.679 59.1278 45.6684C59.0302 45.6579 58.9331 45.6526 58.8364 45.6526C58.7029 45.6526 58.584 45.662 58.4795 45.6808C58.375 45.6995 58.2829 45.7253 58.2033 45.7583C58.1237 45.7912 58.0558 45.8304 57.9997 45.8757C57.9435 45.9209 57.8976 45.9699 57.8622 46.0226C57.8268 46.0752 57.8011 46.1303 57.7849 46.188C57.7687 46.2457 57.7608 46.3038 57.7608 46.3623C57.7608 46.4612 57.781 46.5476 57.8215 46.6218C57.8621 46.696 57.9166 46.7577 57.9851 46.8071C58.0537 46.8565 58.1323 46.8936 58.2212 46.9184C58.3101 46.9431 58.4028 46.9554 58.4994 46.9554C58.5575 46.9554 58.6194 46.9514 58.6853 46.9437C58.7511 46.9359 58.8178 46.9275 58.8854 46.9184C58.953 46.9092 59.0201 46.9007 59.0863 46.8929C59.1526 46.8851 59.2158 46.8813 59.2755 46.8813C59.4118 46.8813 59.5127 46.904 59.578 46.9493C59.6433 46.9945 59.6761 47.0561 59.6761 47.1339C59.6761 47.1824 59.663 47.2272 59.6367 47.2684C59.6105 47.3097 59.5685 47.345 59.511 47.3747C59.4534 47.4045 59.3791 47.4279 59.2879 47.4448C59.1968 47.4618 59.0863 47.4702 58.9565 47.4702C58.8488 47.4702 58.7474 47.4638 58.652 47.4509C58.5567 47.4381 58.4658 47.4196 58.3793 47.3954C58.2927 47.3711 58.2092 47.3414 58.1287 47.3062C58.0482 47.271 57.9687 47.2314 57.8905 47.1875L57.6572 47.5402Z" fill="white"/>
</g>
<g id="Group_40">
<path id="Vector_23" d="M54.2803 47.8257H54.7181V46.1454L56.063 46.8415V47.8257H56.5008V45.6801H56.063V46.3801L54.7181 45.6801H54.2803V47.8257Z" fill="white"/>
</g>
<g id="Group_41">
<path id="Vector_24" d="M50.9365 46.9142C50.9365 47.0551 50.9605 47.1833 51.0084 47.2985C51.0562 47.4138 51.1257 47.5127 51.2169 47.5951C51.3081 47.6774 51.4196 47.741 51.5517 47.7859C51.6838 47.8307 51.8346 47.8532 52.004 47.8532C52.1735 47.8532 52.3242 47.8307 52.4563 47.7859C52.5884 47.741 52.6999 47.6774 52.7911 47.5951C52.8822 47.5127 52.9517 47.4138 52.9997 47.2985C53.0475 47.1833 53.0714 47.0551 53.0714 46.9142V45.6801H52.6336V46.8619C52.6336 46.959 52.6203 47.0452 52.5936 47.1207C52.567 47.1962 52.5271 47.2601 52.4742 47.3123C52.4213 47.3645 52.3554 47.404 52.2768 47.4311C52.1981 47.4581 52.1072 47.4715 52.004 47.4715C51.8999 47.4715 51.8088 47.4581 51.7305 47.4311C51.6523 47.404 51.5867 47.3645 51.5338 47.3123C51.4809 47.2601 51.441 47.1962 51.4143 47.1207C51.3877 47.0452 51.3743 46.959 51.3743 46.8619V45.6801H50.9365V46.9142Z" fill="white"/>
</g>
<g id="Group_42">
<path id="Vector_25" d="M68.6853 43.8748C68.7438 44.0113 68.8283 44.1301 68.9388 44.2318C69.0492 44.3334 69.1839 44.4134 69.3426 44.4719C69.5014 44.5306 69.6812 44.5599 69.8819 44.5599C70.0254 44.5599 70.1575 44.5445 70.2782 44.5138C70.3987 44.4832 70.5066 44.4402 70.6014 44.3848C70.6962 44.3294 70.7775 44.2634 70.8457 44.1865C70.9138 44.1097 70.9674 44.0252 71.0066 43.9332C71.0457 43.8412 71.0696 43.7432 71.0784 43.6393C71.0872 43.5355 71.08 43.4286 71.057 43.3188L71.0556 43.3202V43.3188H69.9081V43.6771H70.6621C70.6492 43.753 70.6225 43.8214 70.582 43.8823C70.5415 43.9432 70.489 43.9952 70.4246 44.0382C70.3601 44.0811 70.2845 44.1143 70.1981 44.1376C70.1115 44.1609 70.0163 44.1727 69.9123 44.1727C69.7815 44.1727 69.6633 44.1546 69.5574 44.1185C69.4516 44.0824 69.3614 44.0323 69.2868 43.9682C69.2122 43.9042 69.1546 43.8277 69.1141 43.7389C69.0736 43.6502 69.0534 43.5527 69.0534 43.4466C69.0534 43.344 69.0728 43.2498 69.1114 43.1637C69.1501 43.0777 69.2062 43.0037 69.2799 42.942C69.3536 42.8802 69.4436 42.8322 69.5504 42.7979C69.6572 42.7636 69.7787 42.7464 69.915 42.7464C69.9738 42.7464 70.0327 42.7496 70.0911 42.756C70.1496 42.7624 70.2061 42.7718 70.261 42.7841C70.3158 42.7964 70.3669 42.8117 70.4149 42.8295C70.4627 42.8473 70.5057 42.8673 70.5434 42.8892L70.745 42.5597C70.6823 42.5249 70.6162 42.4949 70.5467 42.4698C70.4772 42.4446 70.4059 42.4237 70.3327 42.4072C70.2596 42.3908 70.1854 42.3787 70.1104 42.371C70.0354 42.3632 69.9606 42.3593 69.886 42.3593C69.6799 42.3593 69.4968 42.3872 69.3371 42.443C69.1774 42.4988 69.0427 42.5751 68.9333 42.6722C68.8236 42.7693 68.7404 42.8835 68.6833 43.0148C68.6262 43.1461 68.5977 43.2872 68.5977 43.4383C68.5977 43.5929 68.6269 43.7384 68.6853 43.8748Z" fill="white"/>
</g>
<g id="Group_43">
<path id="Vector_26" d="M65.2363 44.531H65.674V42.8507L67.0191 43.5467V44.531H67.4568V42.3853H67.0191V43.0855L65.674 42.3853H65.2363V44.531Z" fill="white"/>
</g>
<g id="Group_44">
<path id="Vector_27" d="M63.5625 44.531H64.003V42.3853H63.5625V44.531Z" fill="white"/>
</g>
<g id="Group_45">
<path id="Vector_28" d="M61.2371 44.531H61.6749V42.767H62.4716V42.3853H60.4404V42.767H61.2371V44.531Z" fill="white"/>
</g>
<g id="Group_46">
<path id="Vector_29" d="M58.207 44.531H58.6447V42.767H59.4415V42.3853H57.4102V42.767H58.207V44.531Z" fill="white"/>
</g>
<g id="Group_47">
<path id="Vector_30" d="M54.5244 44.531H56.3915V44.1508H54.9622V43.5536H56.2023V43.1953H54.9622V42.767H56.3624V42.3853H54.5244V44.531Z" fill="white"/>
</g>
<g id="Group_48">
<path id="Vector_31" d="M50.9578 43.8748C51.0162 44.0113 51.1008 44.1301 51.2112 44.2318C51.3217 44.3334 51.4563 44.4134 51.6151 44.4719C51.7739 44.5306 51.9537 44.5599 52.1543 44.5599C52.2979 44.5599 52.43 44.5445 52.5507 44.5138C52.6712 44.4832 52.7791 44.4402 52.8739 44.3848C52.9687 44.3294 53.0501 44.2634 53.1183 44.1865C53.1864 44.1097 53.2399 44.0252 53.2791 43.9332C53.3181 43.8412 53.3421 43.7432 53.3509 43.6393C53.3596 43.5355 53.3525 43.4286 53.3294 43.3188L53.3281 43.3202V43.3188H52.1806V43.6771H52.9346C52.9217 43.753 52.895 43.8214 52.8545 43.8823C52.8139 43.9432 52.7614 43.9952 52.697 44.0382C52.6325 44.0811 52.557 44.1143 52.4705 44.1376C52.3839 44.1609 52.2887 44.1727 52.1848 44.1727C52.054 44.1727 51.9358 44.1546 51.8299 44.1185C51.7241 44.0824 51.6338 44.0323 51.5592 43.9682C51.4846 43.9042 51.4271 43.8277 51.3866 43.7389C51.346 43.6502 51.3258 43.5527 51.3258 43.4466C51.3258 43.344 51.3452 43.2498 51.3839 43.1637C51.4225 43.0777 51.4787 43.0037 51.5524 42.942C51.626 42.8802 51.7161 42.8322 51.8229 42.7979C51.9297 42.7636 52.0512 42.7464 52.1875 42.7464C52.2463 42.7464 52.3052 42.7496 52.3636 42.756C52.422 42.7624 52.4786 42.7718 52.5334 42.7841C52.5882 42.7964 52.6394 42.8117 52.6873 42.8295C52.7352 42.8473 52.7781 42.8673 52.8158 42.8892L53.0174 42.5597C52.9548 42.5249 52.8888 42.4949 52.8193 42.4698C52.7498 42.4446 52.6783 42.4237 52.6052 42.4072C52.5321 42.3908 52.4579 42.3787 52.3829 42.371C52.3078 42.3632 52.2331 42.3593 52.1585 42.3593C51.9523 42.3593 51.7693 42.3872 51.6096 42.443C51.4499 42.4988 51.3152 42.5751 51.2057 42.6722C51.0961 42.7693 51.0129 42.8835 50.9558 43.0148C50.8987 43.1461 50.8701 43.2872 50.8701 43.4383C50.8701 43.5929 50.8993 43.7384 50.9578 43.8748Z" fill="white"/>
</g>
</g>
</g>
</g>
</g>
</svg>
