<svg width="499" height="517" viewBox="0 0 499 517" fill="none" xmlns="http://www.w3.org/2000/svg">
<g id="quicksand">
<g id="Group">
<g id="Group_2">
<g id="Group_3">
<path id="Vector" d="M324.689 276.853C324.689 266.466 321.813 263.59 313.823 263.59H312.544V358.503H314.941C322.771 358.503 324.689 354.988 324.689 349.396V276.853ZM300.561 369.369V252.725H314.941C328.683 252.725 336.672 258.317 336.672 272.858V347.798C336.672 363.457 325.807 369.369 312.864 369.369H300.561Z" fill="white"/>
</g>
</g>
<g id="Group_4">
<g id="Group_5">
<path id="Vector_2" d="M292.16 252.725V369.369H280.816L265.477 272.379H263.559L265.796 309.289L266.755 369.369H255.41V252.725H266.755L282.094 349.715H284.012L281.775 312.805L280.656 252.725H292.16Z" fill="white"/>
</g>
</g>
<g id="Group_6">
<g id="Group_7">
<path id="Vector_3" d="M231.182 304.051H229.425L225.945 359.177H237.094L234.218 336.008L231.182 304.051ZM235.656 278.485L255.15 395.129H241.729L237.574 362.372H225.59L223.513 395.129H209.132L226.709 294.623L219.837 278.485H235.656Z" fill="white"/>
</g>
</g>
<g id="Group_8">
<g id="Group_9">
<path id="Vector_4" d="M208.006 420.111C208.006 433.853 199.538 439.765 189.471 439.765C180.044 439.765 175.57 434.811 175.57 424.905C175.57 414.678 175.889 403.014 177.327 394.226H188.832C181.642 407.968 178.606 417.874 178.606 422.987C178.606 427.621 181.642 428.899 189.471 428.899C194.744 428.899 196.023 425.704 196.023 421.549C196.023 400.457 174.771 363.067 174.771 340.058C174.771 325.837 183.239 319.925 193.306 319.925C201.615 319.925 205.609 324.879 205.609 334.785C205.609 340.858 205.609 353.001 203.852 363.866H193.306C200.496 346.449 202.573 340.697 202.573 336.383C202.573 332.069 200.017 330.79 193.306 330.79C188.032 330.79 186.754 333.986 186.754 338.141C186.754 356.197 208.006 401.576 208.006 420.111Z" fill="white"/>
</g>
</g>
<g id="Group_10">
<g id="Group_11">
<g id="Group_12">
<path id="Vector_5" d="M318.578 198.965V108.917H330.562V121.859L326.727 159.569L328.325 159.888L343.025 108.917H357.406V119.622L353.891 120.581C345.103 122.978 342.067 132.885 335.995 148.704C334.078 153.817 332.64 157.971 331.841 161.646L332.959 162.765L346.861 161.486L357.406 225.561H344.464L338.551 180.341C336.953 167.878 335.356 165.322 331.042 166.121C330.722 168.198 330.562 170.275 330.562 172.512L330.921 198.965H318.578Z" fill="white"/>
</g>
</g>
</g>
<g id="Group_13">
<g id="Group_14">
<path id="Vector_6" d="M295.097 131.026C306.282 107.057 307.4 100.827 307.4 96.3524C307.4 92.8372 304.844 91.5584 298.133 91.5584C293.979 91.5584 293.02 95.0743 293.02 100.667V176.405C293.02 187.91 296.376 189.667 299.571 189.667C303.725 189.667 305.323 183.596 305.642 173.369L306.122 154.514H308.359L308.838 173.848C309.158 189.028 304.524 200.533 294.937 200.533C285.829 200.533 281.035 195.579 281.035 181.838V102.264C281.035 86.6051 288.865 80.6928 298.133 80.6928C306.442 80.6928 310.437 85.6468 310.437 95.5534C310.437 103.703 310.117 114.887 307.24 131.026H295.097Z" fill="white"/>
</g>
</g>
<g id="Group_15">
<g id="Group_16">
<path id="Vector_7" d="M255.5 198.965V82.3205H267.484V198.965H255.5Z" fill="white"/>
</g>
</g>
<g id="Group_17">
<g id="Group_18">
<path id="Vector_8" d="M228.147 228.39C232.301 228.39 233.26 224.874 233.26 219.281V121.013H245.244V217.684C245.244 233.343 236.615 239.255 226.229 239.255C215.203 239.255 209.132 234.301 209.132 220.56V121.013H221.116V215.127C221.116 226.632 224.312 228.39 228.147 228.39Z" fill="white"/>
</g>
</g>
<g id="Group_19">
<g id="Group_20">
<path id="Vector_9" d="M187.564 172.021C187.564 160.516 184.528 158.758 181.332 158.758C176.538 158.758 175.42 162.273 175.42 167.866V242.007C175.42 253.512 178.615 255.27 182.45 255.27C186.605 255.27 187.564 250.316 187.564 242.486V172.021ZM205.46 246.002V266.135H180.533C169.507 266.135 163.436 261.181 163.436 247.44V169.464C163.436 153.805 172.064 147.893 182.45 147.893C193.635 147.893 199.547 152.846 199.547 166.588V240.09C199.547 252.393 193.476 260.702 184.688 261.821V263.418C191.718 263.259 198.429 260.383 205.46 246.002Z" fill="white"/>
</g>
</g>
<g id="Group_21">
<g id="Group_22">
<g id="Group_23">
<path id="Vector_10" d="M197.919 307.257H200.103V298.402H204.079V296.487H193.942V298.402H197.919V307.257Z" fill="white"/>
</g>
<g id="Group_24">
<path id="Vector_11" d="M180.565 302.303V298.389H183.913C184.744 298.389 185.367 298.553 185.781 298.882C186.194 299.21 186.401 299.675 186.401 300.277C186.401 300.584 186.349 300.863 186.246 301.114C186.142 301.365 185.986 301.577 185.777 301.752C185.568 301.926 185.308 302.061 184.998 302.158C184.689 302.255 184.326 302.303 183.913 302.303H180.565ZM178.38 307.257H180.565V304.191L183.872 304.198H183.934L185.96 307.257H188.633L186.291 303.812C186.699 303.656 187.055 303.459 187.358 303.223C187.662 302.986 187.914 302.716 188.113 302.413C188.313 302.11 188.461 301.778 188.557 301.417C188.654 301.056 188.702 300.676 188.702 300.277C188.702 299.684 188.604 299.154 188.409 298.685C188.214 298.217 187.917 297.819 187.517 297.493C187.117 297.167 186.614 296.917 186.008 296.745C185.402 296.573 184.685 296.487 183.858 296.487H178.38V307.257Z" fill="white"/>
</g>
<g id="Group_25">
<path id="Vector_12" d="M164.705 303.647L166.972 298.754L169.302 303.647H164.705ZM160.736 307.257H163.038L163.872 305.445H170.162L171.024 307.257H173.319L168.11 296.487H165.794L160.736 307.257Z" fill="white"/>
</g>
<g id="Group_26">
<path id="Vector_13" d="M194.666 290.719H203.982V288.811H196.85V285.813H203.038V284.015H196.85V281.865H203.837V279.949H194.666V290.719Z" fill="white"/>
</g>
<g id="Group_27">
<path id="Vector_14" d="M177.146 290.719H179.33V284.628H186.028V290.719H188.22V279.949H186.028V282.761H179.33V279.949H177.146V290.719Z" fill="white"/>
</g>
<g id="Group_28">
<path id="Vector_15" d="M165.277 290.719H167.462V281.865H171.438V279.949H161.302V281.865H165.277V290.719Z" fill="white"/>
</g>
</g>
</g>
<g id="Group_29">
<g id="Group_30">
<g id="Group_31">
<path id="Vector_16" d="M233.028 263.839H235.213V259.602H241.539V257.804H235.213V254.985H242.661V253.069H233.028V263.839Z" fill="white"/>
</g>
<g id="Group_32">
<path id="Vector_17" d="M217.379 256.929C217.579 256.488 217.857 256.114 218.213 255.808C218.569 255.503 218.989 255.27 219.474 255.109C219.958 254.949 220.486 254.868 221.056 254.868C221.626 254.868 222.152 254.949 222.637 255.109C223.121 255.27 223.541 255.503 223.894 255.808C224.248 256.114 224.526 256.488 224.728 256.929C224.93 257.369 225.031 257.868 225.031 258.424C225.031 258.98 224.93 259.48 224.728 259.926C224.526 260.371 224.248 260.752 223.894 261.066C223.541 261.381 223.121 261.623 222.637 261.793C222.152 261.963 221.626 262.048 221.056 262.048C220.486 262.048 219.958 261.963 219.474 261.793C218.989 261.623 218.569 261.381 218.213 261.066C217.857 260.752 217.579 260.371 217.379 259.926C217.18 259.48 217.08 258.98 217.08 258.424C217.08 257.868 217.18 257.369 217.379 256.929ZM215.343 260.674C215.641 261.356 216.061 261.942 216.601 262.434C217.141 262.926 217.788 263.308 218.544 263.581C219.299 263.855 220.137 263.991 221.056 263.991C221.97 263.991 222.806 263.855 223.564 263.581C224.322 263.308 224.971 262.926 225.51 262.434C226.05 261.942 226.469 261.356 226.768 260.674C227.066 259.992 227.216 259.242 227.216 258.424C227.216 257.611 227.066 256.866 226.768 256.191C226.469 255.515 226.05 254.935 225.51 254.451C224.971 253.966 224.322 253.591 223.564 253.325C222.806 253.059 221.97 252.925 221.056 252.925C220.137 252.925 219.299 253.059 218.544 253.325C217.788 253.591 217.141 253.966 216.601 254.451C216.061 254.935 215.641 255.515 215.343 256.191C215.045 256.866 214.896 257.611 214.896 258.424C214.896 259.242 215.045 259.992 215.343 260.674Z" fill="white"/>
</g>
</g>
</g>
<g id="Group_33">
<g id="Group_34">
<g id="Group_35">
<path id="Vector_18" d="M353.616 240.057H355.8V237.5L357.406 235.95L361.375 240.057H364.283L358.977 234.427L364.283 229.287H361.485L355.8 234.861V229.287H353.616V240.057Z" fill="white"/>
</g>
<g id="Group_36">
<path id="Vector_19" d="M337.05 236.808C337.333 237.49 337.755 238.082 338.315 238.586C338.875 239.089 339.574 239.484 340.41 239.771C341.246 240.058 342.217 240.202 343.325 240.202C344.193 240.202 345.013 240.095 345.784 239.881C346.556 239.668 347.236 239.373 347.824 238.996L346.818 237.342C346.583 237.476 346.331 237.599 346.06 237.711C345.789 237.824 345.507 237.92 345.216 238C344.924 238.081 344.622 238.144 344.31 238.19C343.997 238.236 343.683 238.258 343.366 238.258C342.668 238.258 342.042 238.168 341.488 237.986C340.934 237.805 340.466 237.552 340.082 237.228C339.699 236.904 339.406 236.52 339.204 236.074C339.002 235.629 338.901 235.14 338.901 234.607C338.901 234.092 338.998 233.62 339.193 233.191C339.388 232.761 339.674 232.391 340.048 232.081C340.422 231.772 340.883 231.53 341.43 231.358C341.976 231.186 342.599 231.1 343.297 231.1C343.587 231.1 343.879 231.118 344.176 231.155C344.472 231.192 344.759 231.243 345.037 231.309C345.315 231.376 345.577 231.457 345.823 231.554C346.069 231.651 346.286 231.76 346.474 231.885L347.48 230.231C346.85 229.869 346.169 229.598 345.436 229.422C344.704 229.245 343.899 229.156 343.021 229.156C342.02 229.156 341.123 229.296 340.33 229.576C339.538 229.856 338.867 230.241 338.318 230.731C337.769 231.22 337.351 231.796 337.061 232.46C336.771 233.124 336.627 233.839 336.627 234.607C336.627 235.392 336.768 236.126 337.05 236.808Z" fill="white"/>
</g>
<g id="Group_37">
<path id="Vector_20" d="M320.582 235.482C320.582 236.189 320.702 236.832 320.941 237.411C321.179 237.99 321.526 238.486 321.981 238.9C322.436 239.313 322.992 239.632 323.652 239.857C324.311 240.082 325.064 240.195 325.909 240.195C326.754 240.195 327.506 240.082 328.166 239.857C328.825 239.632 329.381 239.313 329.836 238.9C330.291 238.486 330.638 237.99 330.877 237.411C331.116 236.832 331.235 236.189 331.235 235.482V229.287H329.051V235.22C329.051 235.707 328.984 236.14 328.851 236.519C328.718 236.898 328.519 237.218 328.255 237.48C327.991 237.742 327.662 237.941 327.27 238.076C326.877 238.212 326.424 238.279 325.909 238.279C325.39 238.279 324.935 238.212 324.544 238.076C324.154 237.941 323.826 237.742 323.562 237.48C323.298 237.218 323.099 236.898 322.966 236.519C322.833 236.14 322.767 235.707 322.767 235.22V229.287H320.582V235.482Z" fill="white"/>
</g>
<g id="Group_38">
<path id="Vector_21" d="M309.113 240.057H311.297V231.202H315.273V229.287H305.137V231.202H309.113V240.057Z" fill="white"/>
</g>
<g id="Group_39">
<path id="Vector_22" d="M287.707 238.624C288.116 238.859 288.56 239.074 289.04 239.268C289.52 239.464 290.025 239.631 290.556 239.771C291.087 239.912 291.642 240.019 292.22 240.095C292.799 240.171 293.391 240.209 293.998 240.209C294.916 240.209 295.751 240.123 296.499 239.951C297.248 239.779 297.887 239.526 298.418 239.193C298.949 238.859 299.357 238.451 299.644 237.966C299.931 237.482 300.075 236.929 300.075 236.308C300.075 235.845 299.991 235.425 299.821 235.051C299.65 234.677 299.4 234.357 299.069 234.093C298.739 233.829 298.329 233.626 297.839 233.483C297.35 233.341 296.788 233.27 296.155 233.27C295.819 233.27 295.474 233.287 295.118 233.321C294.762 233.356 294.412 233.394 294.07 233.435C293.728 233.477 293.402 233.515 293.092 233.549C292.782 233.583 292.507 233.601 292.269 233.601C291.676 233.601 291.235 233.498 290.945 233.294C290.656 233.089 290.511 232.827 290.511 232.505C290.511 232.339 290.556 232.173 290.646 232.005C290.735 231.838 290.894 231.686 291.124 231.551C291.354 231.415 291.663 231.304 292.052 231.217C292.44 231.129 292.934 231.086 293.536 231.086C293.959 231.086 294.373 231.11 294.78 231.158C295.186 231.206 295.581 231.272 295.962 231.354C296.343 231.437 296.708 231.535 297.057 231.647C297.406 231.76 297.733 231.882 298.036 232.016L298.993 230.252C298.626 230.086 298.229 229.936 297.802 229.801C297.374 229.665 296.93 229.549 296.468 229.453C296.006 229.356 295.532 229.282 295.045 229.229C294.558 229.176 294.074 229.149 293.591 229.149C292.925 229.149 292.332 229.197 291.81 229.291C291.289 229.385 290.829 229.514 290.432 229.68C290.035 229.845 289.696 230.042 289.416 230.269C289.136 230.496 288.907 230.742 288.73 231.006C288.553 231.27 288.425 231.547 288.344 231.837C288.263 232.126 288.224 232.418 288.224 232.712C288.224 233.208 288.325 233.642 288.527 234.014C288.729 234.386 289.001 234.696 289.343 234.944C289.685 235.192 290.078 235.378 290.521 235.503C290.965 235.627 291.427 235.689 291.91 235.689C292.199 235.689 292.508 235.669 292.837 235.63C293.166 235.591 293.498 235.548 293.836 235.503C294.173 235.457 294.508 235.414 294.838 235.375C295.169 235.336 295.484 235.316 295.782 235.316C296.463 235.316 296.966 235.431 297.292 235.658C297.618 235.885 297.781 236.194 297.781 236.584C297.781 236.828 297.716 237.053 297.585 237.26C297.454 237.467 297.244 237.644 296.957 237.793C296.67 237.943 296.299 238.06 295.844 238.145C295.389 238.23 294.838 238.273 294.19 238.273C293.653 238.273 293.147 238.24 292.671 238.176C292.195 238.111 291.742 238.019 291.31 237.897C290.878 237.775 290.462 237.626 290.06 237.449C289.658 237.273 289.261 237.074 288.871 236.853L287.707 238.624Z" fill="white"/>
</g>
<g id="Group_40">
<path id="Vector_23" d="M270.855 240.057H273.04V231.623L279.751 235.117V240.057H281.936V229.287H279.751V232.801L273.04 229.287H270.855V240.057Z" fill="white"/>
</g>
<g id="Group_41">
<path id="Vector_24" d="M254.17 235.482C254.17 236.189 254.29 236.832 254.529 237.411C254.767 237.99 255.114 238.486 255.569 238.9C256.024 239.313 256.58 239.632 257.24 239.857C257.899 240.082 258.651 240.195 259.497 240.195C260.342 240.195 261.094 240.082 261.753 239.857C262.413 239.632 262.969 239.313 263.424 238.9C263.879 238.486 264.226 237.99 264.465 237.411C264.704 236.832 264.823 236.189 264.823 235.482V229.287H262.638V235.22C262.638 235.707 262.572 236.14 262.439 236.519C262.306 236.898 262.107 237.218 261.843 237.48C261.579 237.742 261.25 237.941 260.858 238.076C260.465 238.212 260.012 238.279 259.497 238.279C258.977 238.279 258.522 238.212 258.132 238.076C257.742 237.941 257.414 237.742 257.15 237.48C256.886 237.218 256.687 236.898 256.554 236.519C256.421 236.14 256.355 235.707 256.355 235.22V229.287H254.17V235.482Z" fill="white"/>
</g>
<g id="Group_42">
<path id="Vector_25" d="M342.739 220.226C343.031 220.911 343.453 221.508 344.004 222.018C344.555 222.528 345.227 222.929 346.019 223.223C346.812 223.517 347.709 223.665 348.71 223.665C349.426 223.665 350.086 223.587 350.688 223.433C351.289 223.28 351.827 223.064 352.3 222.786C352.774 222.507 353.179 222.176 353.519 221.79C353.859 221.405 354.127 220.981 354.322 220.519C354.517 220.057 354.637 219.565 354.681 219.044C354.724 218.522 354.689 217.986 354.574 217.435L354.567 217.442V217.435H348.841V219.233H352.604C352.539 219.614 352.406 219.958 352.204 220.264C352.001 220.569 351.739 220.83 351.418 221.046C351.096 221.262 350.719 221.428 350.288 221.545C349.856 221.662 349.381 221.721 348.862 221.721C348.209 221.721 347.619 221.63 347.091 221.449C346.563 221.268 346.113 221.016 345.74 220.694C345.368 220.373 345.081 219.989 344.879 219.544C344.677 219.098 344.576 218.609 344.576 218.076C344.576 217.562 344.673 217.088 344.865 216.656C345.058 216.225 345.339 215.853 345.706 215.544C346.074 215.234 346.523 214.992 347.056 214.82C347.589 214.648 348.195 214.562 348.875 214.562C349.169 214.562 349.463 214.578 349.754 214.61C350.046 214.642 350.328 214.689 350.602 214.751C350.875 214.813 351.13 214.89 351.37 214.979C351.608 215.068 351.823 215.169 352.011 215.279L353.017 213.625C352.704 213.45 352.374 213.3 352.028 213.173C351.681 213.047 351.325 212.942 350.96 212.86C350.595 212.777 350.225 212.716 349.85 212.677C349.476 212.638 349.103 212.619 348.731 212.619C347.702 212.619 346.789 212.759 345.992 213.039C345.195 213.319 344.523 213.702 343.976 214.189C343.429 214.677 343.014 215.25 342.729 215.909C342.444 216.568 342.302 217.277 342.302 218.035C342.302 218.811 342.448 219.541 342.739 220.226Z" fill="white"/>
</g>
<g id="Group_43">
<path id="Vector_26" d="M325.526 223.519H327.71V215.085L334.422 218.579V223.519H336.606V212.749H334.422V216.264L327.71 212.749H325.526V223.519Z" fill="white"/>
</g>
<g id="Group_44">
<path id="Vector_27" d="M317.172 223.519H319.37V212.749H317.172V223.519Z" fill="white"/>
</g>
<g id="Group_45">
<path id="Vector_28" d="M305.571 223.519H307.756V214.665H311.731V212.749H301.596V214.665H305.571V223.519Z" fill="white"/>
</g>
<g id="Group_46">
<path id="Vector_29" d="M290.45 223.519H292.634V214.665H296.61V212.749H286.474V214.665H290.45V223.519Z" fill="white"/>
</g>
<g id="Group_47">
<path id="Vector_30" d="M272.075 223.519H281.392V221.611H274.26V218.613H280.448V216.815H274.26V214.665H281.247V212.749H272.075V223.519Z" fill="white"/>
</g>
<g id="Group_48">
<path id="Vector_31" d="M254.276 220.226C254.568 220.911 254.99 221.508 255.541 222.018C256.092 222.528 256.764 222.929 257.556 223.223C258.349 223.517 259.246 223.665 260.247 223.665C260.963 223.665 261.623 223.587 262.225 223.433C262.826 223.28 263.364 223.064 263.838 222.786C264.311 222.507 264.717 222.176 265.057 221.79C265.397 221.405 265.664 220.981 265.86 220.519C266.054 220.057 266.174 219.565 266.218 219.044C266.261 218.522 266.226 217.986 266.111 217.435L266.104 217.442V217.435H260.378V219.233H264.141C264.076 219.614 263.943 219.958 263.741 220.264C263.539 220.569 263.276 220.83 262.955 221.046C262.633 221.262 262.256 221.428 261.825 221.545C261.393 221.662 260.918 221.721 260.399 221.721C259.746 221.721 259.156 221.63 258.628 221.449C258.1 221.268 257.65 221.016 257.277 220.694C256.905 220.373 256.618 219.989 256.416 219.544C256.214 219.098 256.113 218.609 256.113 218.076C256.113 217.562 256.21 217.088 256.403 216.656C256.595 216.225 256.876 215.853 257.243 215.544C257.611 215.234 258.06 214.992 258.593 214.82C259.126 214.648 259.732 214.562 260.412 214.562C260.706 214.562 261 214.578 261.291 214.61C261.583 214.642 261.865 214.689 262.139 214.751C262.412 214.813 262.668 214.89 262.907 214.979C263.145 215.068 263.36 215.169 263.548 215.279L264.554 213.625C264.241 213.45 263.912 213.3 263.565 213.173C263.219 213.047 262.862 212.942 262.497 212.86C262.132 212.777 261.762 212.716 261.387 212.677C261.013 212.638 260.64 212.619 260.268 212.619C259.239 212.619 258.326 212.759 257.529 213.039C256.732 213.319 256.06 213.702 255.513 214.189C254.966 214.677 254.551 215.25 254.266 215.909C253.981 216.568 253.839 217.277 253.839 218.035C253.839 218.811 253.985 219.541 254.276 220.226Z" fill="white"/>
</g>
</g>
</g>
</g>
</g>
</svg>
