<svg width="18" height="18" viewBox="0 0 48 48" fill="none" xmlns="http://www.w3.org/2000/svg">
<path id="Vector" d="M44.6337 38.8712C44.2722 41.3707 42.4619 43.5319 39.9285 44.4927C38.6871 44.972 37.342 45.1176 35.997 44.972C34.7049 44.8287 33.4105 44.4435 32.0679 43.7245C30.207 42.7615 28.3437 41.2744 26.1718 39.0638C29.5851 35.1713 31.6533 31.617 32.4294 28.4457C32.791 26.9563 32.844 25.6103 32.6874 24.3606C32.4801 23.1601 32.0148 22.0538 31.2917 21.0929C29.6887 18.9317 26.9986 17.682 24 17.682C21.0013 17.682 18.3112 18.9787 16.7083 21.0929C15.9851 22.0538 15.5199 23.1601 15.3126 24.3606C15.1053 25.6103 15.1583 27.0034 15.5705 28.4457C16.3467 31.617 18.4655 35.2206 21.8281 39.1109C19.7069 41.3214 17.7954 42.8108 15.9321 43.7716C14.587 44.4927 13.295 44.8779 12.003 45.0213C10.67 45.1601 9.32253 44.9944 8.0739 44.542C5.54048 43.5812 3.7302 41.4177 3.36863 38.9205C3.21436 37.72 3.31801 36.5196 3.83386 35.1736C3.98813 34.6921 4.24846 34.2128 4.50638 33.6372C4.86795 32.869 5.28256 32.0515 5.69475 31.234L5.74778 31.1377C9.3153 23.9776 13.1432 16.6741 17.1253 9.56327L17.2795 9.27436C17.6941 8.55543 18.1063 7.78499 18.5209 7.06383C18.9355 6.29563 19.4008 5.57447 19.9696 4.94961C21.0568 3.79619 22.5031 3.17133 24.106 3.17133C25.709 3.17133 27.1577 3.79619 28.2424 4.94961C28.8113 5.57447 29.2765 6.29563 29.6911 7.06383C30.1057 7.78499 30.5179 8.55319 30.9325 9.27212L31.0892 9.56103C35.0183 16.7189 38.8462 24.0224 42.4137 31.1825V31.2296C42.8283 31.9978 43.1899 32.8645 43.602 33.6327C43.86 34.2105 44.1203 34.6898 44.2746 35.1691C44.6868 36.4211 44.841 37.6215 44.6337 38.8712V38.8712ZM24 36.6114C21.2086 33.3438 19.3984 30.2688 18.7765 27.6753C18.5185 26.5689 18.4655 25.6081 18.6222 24.7436C18.7258 23.9754 19.0368 23.3012 19.449 22.7256C20.4325 21.4289 22.0861 20.6114 24 20.6114C25.9139 20.6114 27.6205 21.3819 28.551 22.7256C28.9656 23.3035 29.2741 23.9754 29.3778 24.7436C29.532 25.6081 29.4814 26.6181 29.2235 27.6753C28.604 30.2217 26.7937 33.2968 24 36.6114V36.6114ZM47.3238 34.1142C47.0659 33.5386 46.8056 32.9138 46.5477 32.3852C46.1331 31.5207 45.7209 30.7032 45.3569 29.9351L45.3063 29.888C41.7387 22.6809 37.9109 15.3774 33.8781 8.17021L33.7239 7.8813C33.3093 7.16013 32.8971 6.39194 32.4825 5.62374C31.9642 4.75924 31.4484 3.84546 30.6216 2.98096C28.9656 1.05711 26.5864 0 24.053 0C21.4666 0 19.1404 1.05711 17.4314 2.88242C16.6552 3.74692 16.0864 4.66069 15.5705 5.5252C15.1559 6.29339 14.7437 7.06159 14.3291 7.78276L14.1748 8.06943C10.1927 15.2766 6.31425 22.5801 2.74673 29.7872L2.69611 29.8835C2.33453 30.6517 1.91993 31.4692 1.50533 32.3337C1.22812 32.9026 0.970199 33.4804 0.72915 34.0627C0.0566246 35.841 -0.150677 37.523 0.107245 39.252C0.676119 42.8555 3.26257 45.8835 6.83009 47.2273C8.17514 47.7559 9.57081 47.9955 11.0195 47.9955C11.4341 47.9955 11.95 47.9485 12.3646 47.8992C14.0712 47.7066 15.8284 47.1803 17.5351 46.2665C19.6563 45.1624 21.6714 43.5767 23.9469 41.2699C26.2224 43.5767 28.2906 45.1624 30.3588 46.2665C32.0655 47.1803 33.8227 47.7066 35.5293 47.8992C35.9439 47.9485 36.4598 47.9955 36.8744 47.9955C38.3231 47.9955 39.7694 47.7559 41.0638 47.2273C44.6844 45.8813 47.2178 42.8063 47.7866 39.252C48.2013 37.5722 47.9939 35.8925 47.3238 34.1142V34.1142Z" fill="white"/>
</svg>
