<svg width="316" height="1179" viewBox="0 0 316 1179" fill="none" xmlns="http://www.w3.org/2000/svg">
<g id="long-pointer">
<path id="long-pointer-curve" d="M18.0562 11C17.5562 189.5 20.5562 195 20.5562 197.5C20.5562 199.5 26.2219 205 29.0547 207.5C36.7214 207.5 52.1547 207.5 52.5547 207.5C230.955 207.5 284.888 207.5 289.555 207.5C292.388 209.5 298.155 214.4 298.555 218C298.955 221.6 298.721 234.833 298.555 241V351V1143.5L295.055 1155L291.555 1159.5L288.055 1161H281.555H271.055H260.555H252.055H248.555L246.555 1162H245.055M245.055 1162L249.555 1156M245.055 1162L249.555 1167" stroke="white" pathLength="1" stroke-width="1"/>
</g>
</svg>
