<svg width="300" height="100" viewBox="0 0 300 100" fill="none" xmlns="http://www.w3.org/2000/svg">
<g id="right-small-pointer">
<path id="right-small-pointer-curve" d="M11.5 2.5C11.5 36.5 12.5 42.3333 13 41C13.3333 42.3333 14.4 45.1 16 45.5C17.6 45.9 20.3333 46.6667 21.5 47H25.5C26.1667 47 27.8 47 29 47C240.5 47 243.5 49 245.5 50C247.5 51 249 53.4888 249 53.4888L250.5 56C250.5 56 250.5 70.3333 250.5 75V81.5V85V87M250.5 87L257 82M250.5 87L243 82" stroke="white" pathLength="1" stroke-width="1"/>
</g>
</svg>
